<svg width="72" height="82" viewBox="0 0 72 82" fill="none" xmlns="http://www.w3.org/2000/svg">
<g clip-path="url(#clip0_1_100)">
<path d="M48.3197 82H23.6799C22.6731 81.3978 22.346 80.7871 22.5747 79.9479C22.7863 79.1791 23.4276 78.8011 24.537 78.799C25.593 78.799 26.6489 78.799 27.7391 78.799C28.2885 75.8094 28.8229 72.9138 29.3765 69.8986C28.9404 69.8986 28.6283 69.8986 28.3163 69.8986C21.9997 69.8986 15.6832 69.9029 9.36664 69.8922C8.62276 69.8922 7.86392 69.873 7.14142 69.7235C2.83207 68.8416 0.0104643 65.3267 0.00618911 60.8444C-0.00449877 49.7467 -0.000223621 38.6489 0.00405153 27.5511C0.00405153 22.0247 3.76405 18.2664 9.28755 18.2578C10.025 18.2578 10.7603 18.2578 11.5512 18.2578C11.5512 17.8371 11.5512 17.5211 11.5512 17.2051C11.5512 13.1499 11.5406 9.09474 11.5555 5.03958C11.5641 2.60307 12.8915 0.834948 15.1637 0.158021C15.2856 0.121719 15.3989 0.0533854 15.5164 0C29.1713 0 42.824 0 56.4788 0C59.6809 1.3026 60.4462 2.46 60.4462 6.00052C60.4462 9.78875 60.4462 13.577 60.4462 17.3652C60.4462 17.6449 60.4462 17.9268 60.4462 18.2578C61.3333 18.2578 62.1007 18.2557 62.8702 18.2578C68.1927 18.2813 71.987 22.0674 71.9912 27.391C71.9998 38.5144 71.9976 49.6399 71.9848 60.7633C71.9848 61.5299 71.9207 62.3157 71.7454 63.061C70.7707 67.2251 67.3228 69.8794 62.8723 69.8901C56.4767 69.9071 50.0789 69.8943 43.6833 69.8943C43.3712 69.8943 43.0591 69.8943 42.6209 69.8943C43.181 72.9309 43.7196 75.8479 44.2626 78.7947C45.5173 78.7947 46.6887 78.7712 47.858 78.8011C48.9011 78.8268 49.5467 79.5848 49.4612 80.5778C49.3992 81.3188 48.884 81.6733 48.3176 81.9936L48.3197 82ZM14.8004 11.5099V58.3011H57.1864V11.5099H14.8004ZM68.7271 61.6559H3.21469C3.31516 62.0872 3.37073 62.4268 3.47334 62.7556C4.23859 65.2199 6.33983 66.6912 9.13792 66.6933C27.0508 66.6976 44.9637 66.6955 62.8766 66.6933C63.116 66.6933 63.3554 66.6848 63.5948 66.6656C66.3224 66.4648 68.398 64.464 68.7271 61.6559ZM11.4893 58.3246V29.8489H3.24676V58.3246H11.4893ZM68.7421 58.3182V29.8424H60.4911V58.3182H68.7421ZM14.7747 8.17865H57.1864C57.2163 8.04839 57.2377 7.995 57.2377 7.94375C57.2419 7.08958 57.2484 6.23755 57.2462 5.38339C57.2441 3.71562 56.7225 3.20312 55.0317 3.20312C42.3473 3.20312 29.6629 3.20312 16.9785 3.20312C16.7648 3.20312 16.551 3.19458 16.3394 3.20953C15.4865 3.27146 14.8431 3.80104 14.7918 4.65307C14.7234 5.81474 14.7747 6.98495 14.7747 8.17865ZM40.9985 78.7627C40.4727 75.9055 39.9682 73.1295 39.4317 70.3598C39.3975 70.1805 39.1067 69.9221 38.9336 69.9199C36.858 69.8901 34.7824 69.9007 32.6406 69.9007C32.0912 72.8711 31.5504 75.7923 30.9989 78.7648H41.0006L40.9985 78.7627ZM11.4914 26.5603V21.5165C6.56855 21.0552 3.29592 23.0817 3.3173 26.5603H11.4914ZM60.4825 26.5539H68.7079C68.5839 24.2348 66.8568 22.1037 64.5525 21.6638C63.24 21.414 61.8698 21.4716 60.4846 21.3883V26.5539H60.4825Z" fill="#FD6F00"/>
<path d="M16.7693 38.5015C16.7693 34.314 16.7672 30.1264 16.7693 25.9389C16.7714 23.2632 18.2549 21.7748 20.9141 21.7706C23.2055 21.7663 25.497 21.762 27.7885 21.7706C30.1484 21.7812 31.7345 23.2867 31.7409 25.6527C31.7665 34.2414 31.7665 42.83 31.7409 51.4187C31.7345 53.7869 30.1655 55.2881 27.7949 55.303C25.4243 55.318 23.0516 55.3222 20.6811 55.303C18.3169 55.2838 16.78 53.7484 16.7736 51.3845C16.7586 47.0902 16.7693 42.7959 16.7693 38.5015ZM28.5559 38.6019C28.5559 34.4165 28.5495 30.2289 28.5623 26.0435C28.5644 25.3517 28.4319 24.9438 27.5961 24.9587C25.3602 24.9993 23.12 24.9908 20.8841 24.963C20.1787 24.9545 19.9586 25.2385 19.9607 25.9154C19.9735 34.3418 19.9757 42.7681 19.9607 51.1923C19.9607 51.9034 20.245 52.1212 20.9141 52.1148C23.0709 52.0913 25.2298 52.1084 27.3866 52.1063C28.4875 52.1063 28.5538 52.038 28.5559 50.9233C28.558 46.8169 28.5559 42.7105 28.5559 38.604V38.6019Z" fill="black"/>
<path d="M44.7886 21.7706C46.9198 21.7706 49.0531 21.7621 51.1843 21.7728C53.4928 21.7856 55.0618 23.3017 55.0918 25.6144C55.1281 28.3072 55.126 31.002 55.0918 33.6969C55.064 35.9776 53.5613 37.5257 51.2719 37.5492C46.9284 37.5962 42.5848 37.5984 38.2412 37.5492C35.892 37.5236 34.4064 35.9114 34.4 33.5453C34.3936 30.9572 34.3936 28.3712 34.4 25.7831C34.4064 23.3402 35.9562 21.7813 38.3909 21.7706C40.522 21.7621 42.6553 21.7706 44.7865 21.7706H44.7886ZM37.6 29.3407C38.3032 28.7663 38.859 28.2815 39.4468 27.8374C40.8854 26.7462 42.6853 26.7632 44.1003 27.8758C44.6027 28.2708 45.12 28.6595 45.5624 29.1165C46.1417 29.7144 46.6141 29.6397 47.1827 29.0994C48.4311 27.9078 49.8739 27.6879 51.46 28.3563C51.5754 28.4054 51.6994 28.431 51.9004 28.4929C51.9004 27.5042 51.9046 26.5732 51.9004 25.6443C51.8961 25.1297 51.5947 24.9674 51.118 24.9695C46.8835 24.9759 42.6489 24.9759 38.4144 24.9695C37.8372 24.9695 37.5936 25.2193 37.6021 25.7895C37.6171 26.9085 37.6064 28.0274 37.6064 29.3407H37.6ZM44.7181 34.3632C46.7937 34.3632 48.8714 34.3824 50.947 34.344C51.2548 34.3376 51.802 34.0856 51.817 33.9105C51.8683 33.304 52.2338 32.5908 51.5049 32.0954C50.4375 31.3708 49.5711 31.2782 48.9056 31.8178C47.2725 33.1481 45.4342 33.1481 43.8118 31.8156C43.3586 31.4441 42.8947 31.0832 42.4779 30.6732C41.9863 30.1906 41.5716 30.1692 41.0415 30.6454C40.1116 31.4804 39.1134 32.2406 38.1771 33.0713C37.9334 33.2869 37.8116 33.6436 37.6342 33.934C37.9719 34.077 38.3075 34.3397 38.6495 34.3461C40.6717 34.3845 42.6959 34.3653 44.7181 34.3653V34.3632Z" fill="black"/>
<path d="M44.7459 55.3073C42.6404 55.3073 40.5349 55.3159 38.4315 55.3052C35.9327 55.2924 34.4064 53.7527 34.4 51.2543C34.3957 48.6683 34.3915 46.0802 34.4 43.4942C34.4086 41.141 35.9455 39.5522 38.2819 39.5415C42.5976 39.5181 46.9155 39.5181 51.2313 39.5415C53.51 39.5544 55.0554 41.0748 55.0875 43.349C55.126 46.0695 55.126 48.79 55.0875 51.5106C55.0533 53.7826 53.5014 55.2838 51.2185 55.3052C49.0595 55.3265 46.9027 55.3095 44.7438 55.3116L44.7459 55.3073ZM49.7564 52.1063C50.1882 52.1063 50.5067 52.1063 50.8252 52.1063C51.8213 52.0978 51.9004 52.0231 51.9004 50.9938C51.9046 48.5658 51.8854 46.1357 51.9111 43.7077C51.9196 42.9881 51.6588 42.719 50.9278 42.7233C46.8215 42.7468 42.7152 42.7468 38.611 42.7233C37.8501 42.719 37.5722 42.9838 37.585 43.7505C37.6192 45.9649 37.5978 48.1793 37.5978 50.3959C37.5978 52.2067 37.6213 52.2281 39.434 52.0957C39.5088 52.0893 39.5815 52.0529 39.7354 52.006C39.7974 50.319 39.5088 48.5359 40.8576 47.1159C42.2236 45.6766 43.9614 45.7748 45.6992 45.8197C46.721 45.8453 47.6145 46.2062 48.3926 46.881C49.9958 48.2754 49.7585 50.1759 49.7564 52.1063ZM46.5521 52.0764C46.5521 51.3184 46.5735 50.6308 46.5457 49.9453C46.5201 49.3388 46.1353 48.963 45.5603 49.0377C44.6903 49.1531 43.4826 48.4548 43.0487 49.7189C42.8092 50.4172 43.0059 51.2671 43.0059 52.0764H46.5543H46.5521Z" fill="black"/>
<path d="M39.1198 18.828C34.4556 18.828 29.7914 18.8323 25.1272 18.8259C23.9024 18.8259 23.2162 18.2664 23.1799 17.2927C23.1499 16.4577 23.6865 15.7915 24.5137 15.6719C24.8279 15.627 25.1507 15.6292 25.4714 15.6292C34.5881 15.6292 43.7027 15.6292 52.8195 15.6292C53.138 15.6292 53.4629 15.6292 53.775 15.6761C54.5381 15.7936 55.0576 16.3958 55.0853 17.1581C55.1153 17.9653 54.6194 18.6209 53.8284 18.7661C53.4907 18.828 53.1401 18.8259 52.7939 18.8259C48.2365 18.8302 43.6771 18.828 39.1198 18.8259V18.828Z" fill="#FD6F00"/>
<path d="M16.7778 17.2243C16.7778 16.336 17.4533 15.6527 18.3383 15.6441C19.2147 15.6356 19.9329 16.321 19.9585 17.1838C19.9842 18.0678 19.2339 18.8216 18.3383 18.8109C17.464 18.8003 16.7778 18.1041 16.7778 17.2222V17.2243Z" fill="#FD6F00"/>
<path d="M53.0568 4.15131C53.4287 4.15131 53.8049 4.12355 54.1747 4.15771C54.9678 4.22818 55.5556 4.84105 55.6176 5.61834C55.6753 6.35292 55.2157 7.12808 54.4633 7.2199C53.4971 7.33522 52.4967 7.34162 51.5306 7.22631C50.7332 7.13021 50.3057 6.37214 50.3784 5.55855C50.4468 4.78126 51.0325 4.2111 51.8576 4.15344C52.2552 4.12568 52.6571 4.14917 53.0568 4.14917V4.15344V4.15131Z" fill="#FD6F00"/>
<path d="M24.2102 35.0699C23.5988 35.0699 22.9875 35.0955 22.3783 35.0635C21.4784 35.0144 20.8136 34.314 20.8179 33.4662C20.8221 32.6184 21.4869 31.9095 22.3911 31.8839C23.6373 31.8497 24.8878 31.8476 26.134 31.8839C27.051 31.9116 27.6859 32.6056 27.6816 33.4769C27.6773 34.346 27.0382 35.0165 26.1212 35.0614C25.4863 35.0934 24.8472 35.0678 24.2102 35.0678V35.0699Z" fill="black"/>
<path d="M24.3149 42.6037C24.8728 42.6037 25.4308 42.5909 25.9887 42.6059C27.0147 42.6358 27.6923 43.2913 27.6816 44.2224C27.6709 45.1193 27.0062 45.777 26.0271 45.7962C24.8322 45.8197 23.6373 45.8218 22.4424 45.7962C21.4933 45.7727 20.8029 45.0595 20.8157 44.184C20.8286 43.3063 21.5211 42.6507 22.483 42.6059C22.5365 42.6037 22.5899 42.6059 22.6434 42.6059C23.2013 42.6059 23.7592 42.6059 24.3171 42.6059L24.3149 42.6037Z" fill="black"/>
<path d="M24.3064 26.5263C24.9199 26.5263 25.5333 26.4985 26.1447 26.5327C27.0468 26.5839 27.6581 27.216 27.6816 28.0595C27.7051 28.9073 27.1365 29.6205 26.2387 29.6675C24.937 29.7337 23.6266 29.7337 22.3248 29.676C21.3929 29.6354 20.7751 28.8902 20.8179 28.0381C20.8585 27.2032 21.4848 26.5989 22.3868 26.5263C22.4403 26.522 22.4937 26.5199 22.5472 26.5199C23.1328 26.5199 23.7207 26.5199 24.3064 26.5199C24.3064 26.522 24.3064 26.5241 24.3064 26.5263Z" fill="black"/>
<path d="M24.2102 40.4276C23.5967 40.4276 22.9811 40.4661 22.3719 40.4191C21.4271 40.3443 20.8008 39.6717 20.8157 38.8154C20.8285 37.9548 21.4784 37.2886 22.4189 37.2629C23.6437 37.2288 24.8728 37.2288 26.0977 37.2629C27.0425 37.2886 27.6752 37.9505 27.6838 38.8239C27.6923 39.6717 27.113 40.2974 26.2088 40.4191C26.1297 40.4298 26.0506 40.4426 25.9694 40.4426C25.3837 40.4426 24.7959 40.4426 24.2102 40.4426C24.2102 40.4383 24.2102 40.4319 24.2102 40.4276Z" fill="black"/>
<path d="M24.285 47.985C24.8985 47.985 25.512 47.9594 26.1233 47.9915C27.0297 48.0406 27.6474 48.6577 27.6795 49.4991C27.7158 50.3767 27.1237 51.0921 26.1789 51.1369C24.9028 51.1967 23.6202 51.1967 22.3441 51.1391C21.4057 51.0963 20.7858 50.3724 20.8157 49.5183C20.8457 48.6577 21.4933 48.0299 22.4446 47.9893C23.0559 47.9616 23.6715 47.985 24.2829 47.9872L24.285 47.985Z" fill="black"/>
</g>
<defs>
<clipPath id="clip0_1_100">
<rect width="72" height="82" fill="white"/>
</clipPath>
</defs>
</svg>
