<svg width="33" height="33" viewBox="0 0 33 33" fill="none" xmlns="http://www.w3.org/2000/svg">
<g clip-path="url(#clip0_1_506)">
<path d="M16.2542 2.92404C20.5927 2.92404 21.1065 2.94307 22.8127 3.01918C24.3984 3.08895 25.2547 3.35535 25.8255 3.57735C26.5803 3.86912 27.1258 4.22432 27.6903 4.78883C28.2612 5.35968 28.61 5.89882 28.9018 6.65362C29.1238 7.22447 29.3902 8.0871 29.46 9.66646C29.5361 11.379 29.5551 11.8928 29.5551 16.2249C29.5551 20.5634 29.5361 21.0772 29.46 22.7834C29.3902 24.3691 29.1238 25.2254 28.9018 25.7963C28.61 26.5511 28.2548 27.0965 27.6903 27.661C27.1195 28.2319 26.5803 28.5808 25.8255 28.8725C25.2547 29.0945 24.3921 29.3609 22.8127 29.4307C21.1001 29.5068 20.5864 29.5258 16.2542 29.5258C11.9157 29.5258 11.402 29.5068 9.69575 29.4307C8.11004 29.3609 7.25376 29.0945 6.68291 28.8725C5.92811 28.5808 5.38263 28.2256 4.81812 27.661C4.24726 27.0902 3.89841 26.5511 3.60664 25.7963C3.38464 25.2254 3.11824 24.3628 3.04847 22.7834C2.97236 21.0709 2.95333 20.5571 2.95333 16.2249C2.95333 11.8864 2.97236 11.3727 3.04847 9.66646C3.11824 8.08075 3.38464 7.22447 3.60664 6.65362C3.89841 5.89882 4.25361 5.35334 4.81812 4.78883C5.38897 4.21798 5.92811 3.86912 6.68291 3.57735C7.25376 3.35535 8.11639 3.08895 9.69575 3.01918C11.402 2.94307 11.9157 2.92404 16.2542 2.92404ZM16.2542 0C11.846 0 11.2941 0.0190285 9.56255 0.0951423C7.8373 0.171256 6.65119 0.45034 5.62366 0.849938C4.55172 1.26856 3.6447 1.82039 2.74401 2.72741C1.83699 3.62809 1.28517 4.53512 0.86654 5.60071C0.466942 6.63459 0.187858 7.81436 0.111744 9.5396C0.03563 11.2775 0.0166016 11.8294 0.0166016 16.2376C0.0166016 20.6459 0.03563 21.1977 0.111744 22.9293C0.187858 24.6545 0.466942 25.8407 0.86654 26.8682C1.28517 27.9401 1.83699 28.8472 2.74401 29.7478C3.6447 30.6485 4.55172 31.2067 5.61731 31.619C6.65119 32.0186 7.83096 32.2976 9.5562 32.3738C11.2878 32.4499 11.8396 32.4689 16.2479 32.4689C20.6561 32.4689 21.208 32.4499 22.9396 32.3738C24.6648 32.2976 25.8509 32.0186 26.8785 31.619C27.944 31.2067 28.8511 30.6485 29.7517 29.7478C30.6524 28.8472 31.2106 27.9401 31.6229 26.8745C32.0225 25.8407 32.3016 24.6609 32.3777 22.9356C32.4538 21.2041 32.4728 20.6522 32.4728 16.244C32.4728 11.8357 32.4538 11.2839 32.3777 9.55229C32.3016 7.82704 32.0225 6.64093 31.6229 5.6134C31.2233 4.53512 30.6715 3.62809 29.7644 2.72741C28.8638 1.82673 27.9567 1.26856 26.8911 0.856281C25.8573 0.456683 24.6775 0.177599 22.9522 0.101485C21.2143 0.0190285 20.6625 0 16.2542 0Z" fill="white"/>
<path d="M16.2541 7.89697C11.6493 7.89697 7.91333 11.6329 7.91333 16.2378C7.91333 20.8427 11.6493 24.5786 16.2541 24.5786C20.859 24.5786 24.595 20.8427 24.595 16.2378C24.595 11.6329 20.859 7.89697 16.2541 7.89697ZM16.2541 21.6482C13.2667 21.6482 10.8437 19.2253 10.8437 16.2378C10.8437 13.2503 13.2667 10.8274 16.2541 10.8274C19.2416 10.8274 21.6646 13.2503 21.6646 16.2378C21.6646 19.2253 19.2416 21.6482 16.2541 21.6482Z" fill="white"/>
<path d="M26.872 7.56688C26.872 8.64516 25.9967 9.51413 24.9248 9.51413C23.8465 9.51413 22.9775 8.63882 22.9775 7.56688C22.9775 6.4886 23.8528 5.61963 24.9248 5.61963C25.9967 5.61963 26.872 6.49494 26.872 7.56688Z" fill="white"/>
</g>
<defs>
<clipPath id="clip0_1_506">
<rect width="32.4752" height="32.4752" fill="white" transform="translate(0.0166016)"/>
</clipPath>
</defs>
</svg>
