<svg width="33" height="33" viewBox="0 0 33 33" fill="none" xmlns="http://www.w3.org/2000/svg">
<g clip-path="url(#clip0_1_264)">
<path d="M16.2542 2.92404C20.5927 2.92404 21.1064 2.94307 22.8126 3.01918C24.3983 3.08895 25.2546 3.35535 25.8255 3.57735C26.5803 3.86912 27.1258 4.22432 27.6903 4.78883C28.2611 5.35968 28.61 5.89882 28.9018 6.65362C29.1237 7.22447 29.3901 8.0871 29.4599 9.66646C29.536 11.379 29.5551 11.8928 29.5551 16.2249C29.5551 20.5634 29.536 21.0772 29.4599 22.7834C29.3901 24.3691 29.1237 25.2254 28.9018 25.7963C28.61 26.5511 28.2548 27.0965 27.6903 27.661C27.1194 28.2319 26.5803 28.5808 25.8255 28.8725C25.2546 29.0945 24.392 29.3609 22.8126 29.4307C21.1001 29.5068 20.5863 29.5258 16.2542 29.5258C11.9157 29.5258 11.4019 29.5068 9.69569 29.4307C8.10998 29.3609 7.2537 29.0945 6.68285 28.8725C5.92805 28.5808 5.38257 28.2256 4.81806 27.661C4.2472 27.0902 3.89835 26.5511 3.60658 25.7963C3.38458 25.2254 3.11818 24.3628 3.04841 22.7834C2.9723 21.0709 2.95327 20.5571 2.95327 16.2249C2.95327 11.8864 2.9723 11.3727 3.04841 9.66646C3.11818 8.08075 3.38458 7.22447 3.60658 6.65362C3.89835 5.89882 4.25355 5.35334 4.81806 4.78883C5.38891 4.21798 5.92805 3.86912 6.68285 3.57735C7.2537 3.35535 8.11632 3.08895 9.69569 3.01918C11.4019 2.94307 11.9157 2.92404 16.2542 2.92404ZM16.2542 0C11.8459 0 11.2941 0.0190285 9.56249 0.0951423C7.83724 0.171256 6.65113 0.45034 5.62359 0.849938C4.55166 1.26856 3.64463 1.82039 2.74395 2.72741C1.83693 3.62809 1.2851 4.53512 0.866479 5.60071C0.466881 6.63459 0.187797 7.81436 0.111683 9.5396C0.035569 11.2775 0.0165405 11.8294 0.0165405 16.2376C0.0165405 20.6459 0.035569 21.1977 0.111683 22.9293C0.187797 24.6545 0.466881 25.8407 0.866479 26.8682C1.2851 27.9401 1.83693 28.8472 2.74395 29.7478C3.64463 30.6485 4.55166 31.2067 5.61725 31.619C6.65113 32.0186 7.8309 32.2976 9.55614 32.3738C11.2877 32.4499 11.8396 32.4689 16.2478 32.4689C20.6561 32.4689 21.2079 32.4499 22.9395 32.3738C24.6647 32.2976 25.8509 32.0186 26.8784 31.619C27.944 31.2067 28.851 30.6485 29.7517 29.7478C30.6524 28.8472 31.2105 27.9401 31.6228 26.8745C32.0224 25.8407 32.3015 24.6609 32.3776 22.9356C32.4537 21.2041 32.4728 20.6522 32.4728 16.244C32.4728 11.8357 32.4537 11.2839 32.3776 9.55229C32.3015 7.82704 32.0224 6.64093 31.6228 5.6134C31.2232 4.53512 30.6714 3.62809 29.7644 2.72741C28.8637 1.82673 27.9567 1.26856 26.8911 0.856281C25.8572 0.456683 24.6774 0.177599 22.9522 0.101485C21.2143 0.0190285 20.6624 0 16.2542 0Z" fill="black"/>
<path d="M16.2541 7.89697C11.6493 7.89697 7.91333 11.6329 7.91333 16.2378C7.91333 20.8427 11.6493 24.5786 16.2541 24.5786C20.859 24.5786 24.595 20.8427 24.595 16.2378C24.595 11.6329 20.859 7.89697 16.2541 7.89697ZM16.2541 21.6482C13.2667 21.6482 10.8437 19.2253 10.8437 16.2378C10.8437 13.2503 13.2667 10.8274 16.2541 10.8274C19.2416 10.8274 21.6646 13.2503 21.6646 16.2378C21.6646 19.2253 19.2416 21.6482 16.2541 21.6482Z" fill="black"/>
<path d="M26.872 7.56688C26.872 8.64516 25.9967 9.51413 24.9248 9.51413C23.8465 9.51413 22.9775 8.63882 22.9775 7.56688C22.9775 6.4886 23.8528 5.61963 24.9248 5.61963C25.9967 5.61963 26.872 6.49494 26.872 7.56688Z" fill="black"/>
</g>
<defs>
<clipPath id="clip0_1_264">
<rect width="32.4752" height="32.4752" fill="white" transform="translate(0.0165405)"/>
</clipPath>
</defs>
</svg>
