<svg width="33" height="33" viewBox="0 0 33 33" fill="none" xmlns="http://www.w3.org/2000/svg">
<g clip-path="url(#clip0_1_505)">
<path d="M30.596 0H2.92224C1.59659 0 0.524658 1.04657 0.524658 2.3405V30.1284C0.524658 31.4223 1.59659 32.4752 2.92224 32.4752H30.596C31.9216 32.4752 32.9999 31.4223 32.9999 30.1347V2.3405C32.9999 1.04657 31.9216 0 30.596 0ZM10.1594 27.6737H5.33886V12.1719H10.1594V27.6737ZM7.74913 10.0597C6.20148 10.0597 4.95195 8.81018 4.95195 7.26887C4.95195 5.72757 6.20148 4.47803 7.74913 4.47803C9.29044 4.47803 10.54 5.72757 10.54 7.26887C10.54 8.80384 9.29044 10.0597 7.74913 10.0597ZM28.1984 27.6737H23.3842V20.1385C23.3842 18.3434 23.3525 16.0283 20.8788 16.0283C18.3734 16.0283 17.9928 17.9882 17.9928 20.0116V27.6737H13.1849V12.1719H17.8025V14.2904H17.8659C18.5066 13.0726 20.0796 11.785 22.4201 11.785C27.2977 11.785 28.1984 14.9944 28.1984 19.168V27.6737Z" fill="white"/>
</g>
<defs>
<clipPath id="clip0_1_505">
<rect width="32.4752" height="32.4752" fill="white" transform="translate(0.524658)"/>
</clipPath>
</defs>
</svg>
