<svg width="33" height="33" viewBox="0 0 33 33" fill="none" xmlns="http://www.w3.org/2000/svg">
<g clip-path="url(#clip0_1_263)">
<path d="M30.5961 0H2.92234C1.59669 0 0.52475 1.04657 0.52475 2.3405V30.1284C0.52475 31.4223 1.59669 32.4752 2.92234 32.4752H30.5961C31.9217 32.4752 33 31.4223 33 30.1347V2.3405C33 1.04657 31.9217 0 30.5961 0ZM10.1595 27.6737H5.33895V12.1719H10.1595V27.6737ZM7.74922 10.0597C6.20158 10.0597 4.95204 8.81018 4.95204 7.26887C4.95204 5.72757 6.20158 4.47803 7.74922 4.47803C9.29053 4.47803 10.5401 5.72757 10.5401 7.26887C10.5401 8.80384 9.29053 10.0597 7.74922 10.0597ZM28.1985 27.6737H23.3843V20.1385C23.3843 18.3434 23.3526 16.0283 20.8789 16.0283C18.3734 16.0283 17.9929 17.9882 17.9929 20.0116V27.6737H13.185V12.1719H17.8026V14.2904H17.866C18.5066 13.0726 20.0797 11.785 22.4202 11.785C27.2978 11.785 28.1985 14.9944 28.1985 19.168V27.6737Z" fill="black"/>
</g>
<defs>
<clipPath id="clip0_1_263">
<rect width="32.4752" height="32.4752" fill="white" transform="translate(0.52475)"/>
</clipPath>
</defs>
</svg>
