<svg width="33" height="33" viewBox="0 0 33 33" fill="none" xmlns="http://www.w3.org/2000/svg">
<g clip-path="url(#clip0_1_265)">
<path d="M10.7246 29.4306C22.9764 29.4306 29.6795 19.2776 29.6795 10.4757C29.6795 10.1903 29.6732 9.89848 29.6605 9.61305C30.9645 8.67006 32.0897 7.50202 32.9835 6.16383C31.7691 6.70414 30.4797 7.05701 29.1594 7.21039C30.5496 6.3771 31.5905 5.06802 32.0892 3.52585C30.7813 4.30091 29.3511 4.84765 27.8598 5.14263C26.8549 4.07494 25.5264 3.368 24.0794 3.13112C22.6325 2.89423 21.1479 3.14059 19.855 3.8321C18.5622 4.52362 17.5331 5.62177 16.927 6.95678C16.3209 8.2918 16.1714 9.78931 16.5017 11.2178C13.8535 11.0849 11.2629 10.397 8.89767 9.19864C6.53245 8.0003 4.44546 6.31827 2.77201 4.26162C1.92147 5.72804 1.6612 7.46331 2.04411 9.11474C2.42701 10.7662 3.42435 12.2098 4.83343 13.1524C3.77557 13.1188 2.7409 12.834 1.81488 12.3214V12.4039C1.81393 13.9428 2.34595 15.4345 3.32049 16.6256C4.29503 17.8166 5.65196 18.6333 7.16061 18.937C6.18067 19.2051 5.15219 19.2442 4.15474 19.0512C4.58045 20.3746 5.40873 21.5322 6.52398 22.3623C7.63924 23.1923 8.98581 23.6535 10.3758 23.6814C8.01602 25.5351 5.10103 26.5405 2.1003 26.5357C1.56815 26.5349 1.03652 26.5023 0.508255 26.438C3.55667 28.3937 7.1028 29.4325 10.7246 29.4306Z" fill="black"/>
</g>
<defs>
<clipPath id="clip0_1_265">
<rect width="32.4752" height="32.4752" fill="white" transform="translate(0.50827)"/>
</clipPath>
</defs>
</svg>
