<svg width="33" height="33" viewBox="0 0 33 33" fill="none" xmlns="http://www.w3.org/2000/svg">
<g clip-path="url(#clip0_1_507)">
<path d="M10.7247 29.4306C22.9765 29.4306 29.6796 19.2776 29.6796 10.4757C29.6796 10.1903 29.6732 9.89848 29.6605 9.61305C30.9645 8.67006 32.0898 7.50202 32.9835 6.16383C31.7691 6.70414 30.4798 7.05701 29.1595 7.21039C30.5496 6.3771 31.5905 5.06802 32.0892 3.52585C30.7814 4.30091 29.3512 4.84765 27.8598 5.14263C26.855 4.07494 25.5264 3.368 24.0795 3.13112C22.6326 2.89423 21.1479 3.14059 19.8551 3.8321C18.5622 4.52362 17.5332 5.62177 16.927 6.95678C16.3209 8.2918 16.1714 9.78931 16.5017 11.2178C13.8536 11.0849 11.2629 10.397 8.89771 9.19864C6.5325 8.0003 4.44551 6.31827 2.77205 4.26162C1.92151 5.72804 1.66125 7.46331 2.04415 9.11474C2.42705 10.7662 3.42439 12.2098 4.83347 13.1524C3.77562 13.1188 2.74094 12.834 1.81492 12.3214V12.4039C1.81397 13.9428 2.34599 15.4345 3.32053 16.6256C4.29508 17.8166 5.65201 18.6333 7.16065 18.937C6.18072 19.2051 5.15224 19.2442 4.15479 19.0512C4.5805 20.3746 5.40878 21.5322 6.52403 22.3623C7.63928 23.1923 8.98586 23.6535 10.3758 23.6814C8.01607 25.5351 5.10108 26.5405 2.10035 26.5357C1.56819 26.5349 1.03656 26.5023 0.508301 26.438C3.55672 28.3937 7.10285 29.4325 10.7247 29.4306Z" fill="white"/>
</g>
<defs>
<clipPath id="clip0_1_507">
<rect width="32.4752" height="32.4752" fill="white" transform="translate(0.508301)"/>
</clipPath>
</defs>
</svg>
